<?xml version="1.0" standalone="no"?>
<!DOCTYPE svg PUBLIC "-//W3C//DTD SVG 20010904//EN"
 "http://www.w3.org/TR/2001/REC-SVG-20010904/DTD/svg10.dtd">
<svg version="1.0" xmlns="http://www.w3.org/2000/svg"
 width="255.000000pt" height="256.000000pt" viewBox="0 0 255.000000 256.000000"
 preserveAspectRatio="xMidYMid meet">

<g transform="translate(0.000000,256.000000) scale(0.100000,-0.100000)"
fill="#000000" stroke="none">
<path d="M1155 2550 c-320 -36 -575 -160 -792 -383 -185 -191 -287 -381 -338
-629 -52 -261 -26 -532 76 -763 169 -387 505 -661 914 -746 142 -30 365 -32
500 -6 493 97 878 460 1003 947 19 77 25 129 29 272 5 156 3 190 -17 285 -27
134 -40 174 -96 292 -176 374 -532 649 -924 714 -122 21 -266 28 -355 17z
m365 -55 c391 -93 689 -320 859 -655 53 -103 93 -216 116 -325 20 -93 20 -367
1 -469 -111 -579 -625 -1006 -1211 -1006 -479 0 -898 259 -1116 692 -210 417
-162 918 125 1299 188 250 477 422 796 474 105 18 337 12 430 -10z"/>
<path d="M1193 2444 c-15 -24 -15 -29 -2 -53 10 -17 23 -26 39 -26 16 0 29 9
39 26 13 24 13 29 -2 53 -10 14 -26 26 -37 26 -11 0 -27 -12 -37 -26z m65 -20
c4 -38 -20 -63 -43 -44 -18 15 -20 66 -2 73 26 11 42 1 45 -29z"/>
<path d="M1341 2420 l2 -55 7 45 c4 25 4 49 -1 55 -5 5 -8 -13 -8 -45z"/>
<path d="M1098 2449 c-28 -16 -23 -65 7 -85 20 -13 28 -14 40 -4 8 7 15 17 15
22 0 5 -7 3 -15 -6 -20 -20 -44 -10 -51 20 -9 34 13 57 45 49 20 -4 22 -3 11
5 -19 12 -30 12 -52 -1z"/>
<path d="M1384 2436 c-3 -13 -4 -35 -1 -47 4 -22 4 -22 6 4 1 36 15 34 31 -3
18 -42 35 -32 36 21 1 30 0 34 -3 12 -5 -41 -17 -42 -33 -3 -17 41 -28 46 -36
16z"/>
<path d="M1496 2441 c-3 -4 -9 -27 -15 -49 -8 -40 -8 -42 17 -49 36 -9 57 8
60 49 3 32 0 37 -27 46 -17 6 -33 7 -35 3z m50 -26 c11 -26 -5 -65 -26 -65
-25 0 -31 12 -24 49 7 33 40 44 50 16z"/>
<path d="M1046 2400 c5 -43 10 -58 17 -49 2 2 -2 24 -9 49 l-14 45 6 -45z"/>
<path d="M1001 2398 c5 -18 9 -34 9 -36 0 -2 -17 11 -37 29 -44 38 -53 27 -28
-36 l15 -40 -6 40 -6 40 29 -27 c43 -41 52 -37 40 17 -6 25 -14 45 -18 45 -4
0 -3 -15 2 -32z"/>
<path d="M1589 2381 c-13 -45 -2 -71 31 -71 24 0 39 20 45 61 5 32 4 31 -11
-8 -11 -30 -22 -43 -34 -43 -27 0 -31 12 -19 54 14 52 3 58 -12 7z"/>
<path d="M840 2370 c-8 -15 -8 -27 2 -48 17 -35 62 -42 78 -13 13 26 2 28 -16
4 -19 -26 -49 -5 -49 33 0 24 5 30 30 35 l30 7 -32 1 c-23 1 -35 -5 -43 -19z"/>
<path d="M1700 2352 c0 -11 7 -25 15 -32 8 -7 15 -19 15 -26 0 -22 -31 -16
-37 6 -5 20 -23 28 -23 11 0 -16 30 -41 50 -41 27 0 31 25 9 53 -10 14 -19 28
-19 31 0 13 30 5 40 -11 10 -16 10 -16 8 2 -4 28 -58 35 -58 7z"/>
<path d="M763 2348 c-28 -13 -28 -21 -3 -76 15 -33 22 -41 32 -32 7 6 22 18
33 26 19 14 19 15 -3 4 -24 -12 -52 -7 -52 8 0 5 12 14 26 21 15 6 24 14 21
17 -3 3 -15 0 -27 -6 -18 -10 -24 -9 -31 1 -6 10 0 18 16 27 41 21 30 30 -12
10z"/>
<path d="M1800 2330 c12 -8 12 -14 -3 -46 -10 -20 -16 -39 -13 -41 3 -3 13 11
22 31 13 27 22 35 36 30 28 -9 21 4 -12 21 -32 16 -54 20 -30 5z"/>
<path d="M669 2291 c-22 -18 -22 -19 -4 -15 16 4 25 -3 38 -32 10 -20 20 -34
24 -31 3 4 -4 22 -15 41 -15 25 -17 37 -9 45 20 20 -9 13 -34 -8z"/>
<path d="M1109 2285 c-419 -61 -773 -408 -844 -829 -37 -217 -1 -457 95 -647
80 -157 232 -317 396 -416 270 -164 655 -182 948 -45 312 146 528 428 581 757
25 151 14 345 -26 475 -47 149 -143 305 -258 421 -234 234 -549 334 -892 284z
m426 -59 c50 -15 114 -38 143 -51 l53 -25 -17 -30 c-10 -16 -24 -30 -30 -30
-34 0 -114 25 -118 37 -2 7 -3 6 -2 -4 1 -13 18 -21 65 -32 68 -16 70 -15 101
38 6 12 20 7 71 -26 63 -39 64 -40 61 -80 -2 -37 2 -43 45 -79 43 -36 51 -39
76 -30 26 10 31 7 57 -24 16 -19 37 -50 47 -68 l18 -32 -29 -23 c-27 -22 -28
-23 -13 -57 9 -19 16 -29 16 -22 1 7 -3 21 -9 31 -7 14 -3 24 16 42 25 24 26
24 41 4 41 -55 63 -116 64 -177 1 -35 4 -51 6 -35 5 33 23 26 23 -9 0 -23 -2
-24 -70 -24 -66 0 -71 2 -80 25 -7 19 -17 25 -41 25 l-32 0 24 26 c35 38 59
49 71 33 7 -11 8 -9 4 4 -3 10 -6 23 -6 28 0 14 -33 -3 -73 -38 -21 -19 -42
-31 -46 -28 -5 2 -11 -4 -14 -15 -4 -17 -14 -20 -59 -22 l-53 -1 45 -6 c42 -6
44 -7 23 -19 -12 -6 -40 -12 -62 -12 -23 0 -41 -4 -41 -8 0 -12 -362 -24 -374
-12 -13 13 20 59 48 66 30 7 64 -10 77 -39 7 -18 8 -18 6 -3 -1 10 -14 28 -28
38 -39 29 -85 17 -106 -28 -15 -30 -21 -34 -56 -34 l-39 0 23 38 c30 49 58 80
81 88 15 4 18 15 16 57 l-1 52 -6 -46 c-5 -36 -14 -52 -43 -78 -20 -18 -40
-41 -43 -52 -9 -28 -19 -24 -38 16 -9 18 -28 42 -42 51 -24 16 -25 19 -25 135
0 73 -4 119 -10 119 -26 0 -5 19 50 45 33 16 58 30 56 32 -5 5 -74 -26 -115
-51 -31 -20 -47 -23 -116 -20 -44 1 -82 3 -84 3 -3 1 10 16 27 34 l32 33 -21
48 c-11 26 -19 49 -17 50 1 2 31 20 66 41 l62 38 33 -37 32 -38 62 19 c41 12
63 23 63 33 0 10 -3 11 -8 4 -4 -6 -31 -19 -61 -29 l-55 -18 -29 37 c-16 20
-33 36 -38 36 -18 0 -139 -82 -139 -93 1 -7 7 -23 15 -37 22 -39 18 -63 -20
-100 -34 -33 -35 -33 -82 -22 -30 6 -52 7 -57 1 -14 -13 -396 -12 -396 2 0 5
24 35 53 66 135 144 314 241 537 292 25 5 113 9 195 7 128 -3 163 -7 240 -30z
m415 -232 c28 -26 50 -50 50 -54 0 -4 -10 -11 -23 -17 -20 -9 -29 -5 -66 29
-34 32 -41 45 -37 64 4 13 11 24 17 24 5 0 32 -21 59 -46z m-1067 -141 c-67
-2 -179 -2 -250 0 -70 1 -15 3 122 3 138 0 195 -2 128 -3z m-346 -29 c-3 -3
-12 -4 -19 -1 -8 3 -5 6 6 6 11 1 17 -2 13 -5z m166 -1 c-7 -2 -19 -2 -25 0
-7 3 -2 5 12 5 14 0 19 -2 13 -5z m75 0 c-10 -2 -26 -2 -35 0 -10 3 -2 5 17 5
19 0 27 -2 18 -5z m-310 -60 c-10 -2 -26 -2 -35 0 -10 3 -2 5 17 5 19 0 27 -2
18 -5z m360 0 c-10 -2 -26 -2 -35 0 -10 3 -2 5 17 5 19 0 27 -2 18 -5z m275
-20 c-7 -2 -19 -2 -25 0 -7 3 -2 5 12 5 14 0 19 -2 13 -5z m-370 -10 c-7 -2
-21 -2 -30 0 -10 3 -4 5 12 5 17 0 24 -2 18 -5z m-16 -45 c-3 -7 -5 -2 -5 12
0 14 2 19 5 13 2 -7 2 -19 0 -25z m431 25 c-21 -2 -55 -2 -75 0 -21 2 -4 4 37
4 41 0 58 -2 38 -4z m-403 -12 c3 -5 2 -12 -3 -15 -5 -3 -9 1 -9 9 0 17 3 19
12 6z m35 -12 c0 -6 -4 -7 -10 -4 -5 3 -10 11 -10 16 0 6 5 7 10 4 6 -3 10
-11 10 -16z m-110 7 c0 -3 -4 -8 -10 -11 -5 -3 -10 -1 -10 4 0 6 5 11 10 11 6
0 10 -2 10 -4z m-22 -26 c12 0 13 -3 5 -11 -9 -9 -16 -8 -27 3 -8 9 -12 19 -8
22 4 4 8 2 10 -3 2 -6 11 -11 20 -11z m103 -50 c14 0 39 26 39 39 0 6 5 11 11
11 6 0 8 -9 4 -20 -4 -13 -2 -20 7 -20 7 0 4 -6 -7 -13 -27 -18 -196 -23 -223
-6 -19 12 -19 12 0 31 11 11 21 18 22 16 2 -1 8 -12 14 -23 6 -11 12 -14 12
-7 0 6 7 12 15 12 8 0 15 -6 16 -12 0 -7 4 -4 9 7 6 14 9 15 9 5 1 -10 10 -16
26 -16 20 0 25 5 26 26 2 25 2 25 6 -2 2 -16 9 -28 14 -28z m-298 23 c-7 -2
-19 -2 -25 0 -7 3 -2 5 12 5 14 0 19 -2 13 -5z m100 0 c-7 -2 -19 -2 -25 0 -7
3 -2 5 12 5 14 0 19 -2 13 -5z m570 0 c-13 -2 -35 -2 -50 0 -16 2 -5 4 22 4
28 0 40 -2 28 -4z m43 -63 c-30 -36 -32 -59 -11 -100 17 -33 10 -40 -11 -12
-23 30 -17 96 12 127 34 37 43 24 10 -15z m164 -38 c-1 -15 -2 -15 -16 3 -8
11 -21 28 -29 38 -28 33 -14 42 15 9 17 -18 30 -40 30 -50z m-903 42 c-3 -3
-12 -4 -19 -1 -8 3 -5 6 6 6 11 1 17 -2 13 -5z m871 -36 c6 -14 10 -32 7 -40
-7 -18 -45 -42 -45 -28 0 5 5 10 10 10 6 0 10 4 10 9 0 5 -9 7 -20 4 -15 -4
-18 -11 -14 -29 5 -18 2 -24 -10 -24 -9 0 -16 8 -16 19 0 10 -9 21 -20 24 -11
3 -20 1 -20 -5 0 -19 -18 2 -22 27 -9 43 14 62 74 61 47 -1 54 -4 66 -28z
m676 -12 c-3 -9 -13 -16 -22 -16 -13 0 -12 3 3 20 20 23 29 21 19 -4z m74 2
c-3 -7 -11 -13 -18 -13 -7 0 -15 6 -17 13 -3 7 4 12 17 12 13 0 20 -5 18 -12z
m-1621 -5 c-20 -2 -52 -2 -70 0 -17 2 0 4 38 4 39 0 53 -2 32 -4z m121 0 c-10
-2 -28 -2 -40 0 -13 2 -5 4 17 4 22 1 32 -1 23 -4z m145 0 c-24 -2 -62 -2 -86
0 -23 2 -4 4 43 4 47 0 66 -2 43 -4z m240 0 c-29 -2 -78 -2 -110 0 -32 2 -8 3
52 3 61 0 87 -1 58 -3z m387 -53 c-16 -31 -23 -19 -9 16 6 16 13 24 16 17 2
-7 -1 -22 -7 -33z m-753 14 c-3 -3 -12 -4 -19 -1 -8 3 -5 6 6 6 11 1 17 -2 13
-5z m1443 -13 c0 -5 -7 -14 -15 -21 -16 -14 -18 -10 -9 14 6 17 24 22 24 7z
m180 -1 c0 -16 -48 -42 -72 -38 -15 2 -24 11 -26 26 -3 20 0 22 47 22 28 0 51
-4 51 -10z m-390 -10 c0 -6 -85 -10 -236 -10 -154 0 -233 3 -229 10 4 6 93 10
236 10 146 0 229 -4 229 -10z m160 -6 c0 -9 -5 -14 -12 -12 -18 6 -21 28 -4
28 9 0 16 -7 16 -16z m-27 -18 c28 -22 28 -24 17 -67 -15 -56 -47 -119 -61
-119 -7 0 -10 34 -8 98 3 126 4 128 52 88z m120 -38 c-12 -13 -20 -15 -34 -7
-24 12 -24 27 -2 51 17 19 18 19 34 -4 16 -21 16 -24 2 -40z m192 45 c4 -10 9
-76 12 -148 l4 -130 -26 30 -26 30 -20 -24 c-17 -21 -22 -22 -29 -10 -5 7 -7
22 -4 32 3 10 -1 26 -9 35 -16 18 -49 141 -41 154 8 12 34 9 34 -4 0 -7 6 -6
18 4 9 8 25 18 35 21 9 4 17 11 17 17 0 17 27 11 35 -7z m-435 -13 c0 -5 7
-10 15 -10 13 0 15 -21 13 -152 l-3 -153 -180 0 -180 0 -3 26 c-3 25 -6 27
-41 22 l-37 -5 -42 123 c-23 68 -42 132 -42 142 0 16 19 17 250 17 160 0 250
-4 250 -10z m-555 -10 c-3 -5 -15 -10 -26 -10 -10 0 -19 5 -19 10 0 6 12 10
26 10 14 0 23 -4 19 -10z m615 -150 c0 -93 -4 -150 -10 -150 -6 0 -10 57 -10
150 0 93 4 150 10 150 6 0 10 -57 10 -150z m-537 30 c82 -240 158 -483 153
-488 -3 -3 -8 -3 -10 -1 -7 9 -186 565 -186 579 1 24 14 -3 43 -90z m-696 84
c-3 -3 -12 -4 -19 -1 -8 3 -5 6 6 6 11 1 17 -2 13 -5z m550 -6 c-2 -7 -17 -67
-32 -133 -15 -66 -40 -174 -56 -240 -31 -127 -47 -212 -26 -142 6 20 14 37 19
37 13 0 88 -40 120 -63 l28 -21 17 25 c10 13 29 36 44 52 18 17 22 27 13 27
-7 0 -26 -18 -40 -40 -15 -22 -28 -40 -31 -40 -14 0 -125 63 -129 73 -2 7 2
30 11 51 12 28 13 41 5 51 -8 10 -8 25 0 54 9 34 15 41 35 41 20 0 25 -5 25
-24 0 -13 9 -34 19 -47 17 -21 30 -25 101 -29 l82 -5 19 -50 c10 -27 19 -51
19 -52 0 -2 -12 -4 -27 -4 -24 -2 -25 -2 -6 -6 14 -3 25 -14 29 -30 8 -28 51
-76 64 -68 10 6 20 -19 20 -50 0 -13 5 -27 10 -30 12 -8 13 -25 1 -25 -4 0
-14 21 -22 47 -7 26 -14 42 -17 35 -2 -7 5 -40 17 -74 11 -35 21 -74 23 -88
l3 -25 15 30 c8 17 25 34 37 39 14 7 21 18 20 35 -1 15 3 25 9 24 12 -2 11 29
-1 60 -4 10 -3 17 4 17 6 0 11 19 11 44 0 27 6 51 16 60 13 14 13 16 1 16 -19
0 -27 -21 -27 -71 0 -21 -4 -39 -10 -39 -5 0 -10 4 -10 9 0 6 -19 11 -42 13
l-41 3 -29 85 c-15 46 -28 88 -28 92 0 4 96 8 214 8 l213 0 -10 -52 c-10 -53
-30 -88 -51 -88 -5 0 -27 16 -47 36 -31 30 -40 34 -56 25 -16 -9 -15 -10 9
-11 18 0 35 -11 56 -37 26 -33 32 -36 46 -24 9 8 19 11 23 8 3 -4 -4 -56 -16
-116 -11 -61 -21 -117 -21 -126 0 -12 16 -15 95 -15 55 0 95 -4 95 -10 0 -17
-145 -134 -227 -182 -91 -54 -253 -112 -363 -129 -174 -27 -380 7 -559 92
-116 55 -192 111 -291 216 -149 157 -242 359 -265 576 l-7 67 145 0 c162 0
157 -3 157 76 l0 44 90 0 90 0 0 -78 c0 -43 4 -82 9 -88 19 -20 70 -122 64
-128 -4 -3 -1 -6 5 -6 7 0 12 -5 12 -11 0 -6 14 -32 32 -57 17 -26 40 -59 49
-74 28 -40 30 -74 8 -102 l-19 -24 -237 0 c-254 1 -273 4 -273 51 0 20 46 127
59 137 6 5 25 43 31 65 2 6 16 38 32 72 53 118 28 78 -52 -82 -85 -170 -95
-209 -59 -241 19 -17 41 -19 254 -22 l232 -3 32 26 c49 42 43 64 -69 250 -55
91 -100 172 -100 180 0 12 14 15 68 15 l67 -1 -27 -24 c-16 -13 -28 -28 -28
-32 0 -4 20 -38 43 -75 l42 -66 48 20 48 21 21 -21 21 -20 -22 -87 c-12 -48
-20 -89 -17 -92 2 -2 15 44 29 104 83 358 100 423 109 423 6 0 8 -6 5 -12z
m814 -4 c11 -14 9 -19 -11 -34 -30 -23 -32 -21 -24 18 7 36 15 39 35 16z m89
-4 c0 -11 -7 -20 -15 -20 -27 0 -18 30 13 39 1 1 2 -8 2 -19z m-1053 -16 c-3
-3 -12 -4 -19 -1 -8 3 -5 6 6 6 11 1 17 -2 13 -5z m1033 -48 c0 -22 -27 -56
-44 -56 -6 0 -22 9 -35 19 l-24 18 33 31 c28 24 37 28 52 18 10 -6 18 -19 18
-30z m-776 12 c3 -13 6 -57 5 -98 0 -75 0 -75 -14 -41 -8 18 -15 62 -15 97 0
64 12 85 24 42z m-57 -34 c-3 -3 -12 -4 -19 -1 -8 3 -5 6 6 6 11 1 17 -2 13
-5z m675 -89 l-17 -80 -3 49 c-2 33 3 60 14 82 10 18 19 32 20 31 1 -1 -5 -38
-14 -82z m213 35 c10 -46 -2 -53 -41 -24 l-35 27 22 23 c26 28 44 19 54 -26z
m-1132 33 c-40 -2 -106 -2 -145 0 -40 1 -8 3 72 3 80 0 112 -2 73 -3z m980
-75 c-20 -21 -39 -36 -41 -34 -2 3 1 29 8 60 l11 56 30 -22 29 -22 -37 -38z
m-639 6 c5 -24 3 -33 -8 -37 -13 -5 -16 3 -16 46 1 54 12 50 24 -9z m-229 26
c4 -11 4 -34 0 -50 -6 -26 -11 -30 -40 -30 -18 0 -40 -3 -49 -6 -31 -12 -16
-24 29 -24 48 0 48 0 39 -24 -5 -12 -9 -13 -24 -3 -15 9 -27 8 -55 -6 -20 -9
-41 -17 -48 -17 -7 0 -30 28 -52 62 l-39 61 34 28 c32 27 41 29 116 29 74 0
83 -2 89 -20z m155 1 c0 -14 -8 -21 -27 -23 -17 -2 -32 -12 -38 -25 -5 -13
-12 -23 -15 -23 -14 0 -30 43 -24 65 6 22 11 25 55 25 42 0 49 -3 49 -19z
m813 -36 c37 -26 37 -26 21 -56 -8 -17 -21 -28 -27 -25 -57 23 -89 29 -97 17
-4 -8 -13 -10 -20 -6 -8 5 2 21 31 51 24 24 46 44 49 44 3 0 22 -11 43 -25z
m-638 -45 c-3 -5 -10 -10 -16 -10 -5 0 -9 5 -9 10 0 6 7 10 16 10 8 0 12 -4 9
-10z m687 -12 c-7 -7 -12 -8 -12 -2 0 14 12 26 19 19 2 -3 -1 -11 -7 -17z
m-779 5 c-7 -2 -21 -2 -30 0 -10 3 -4 5 12 5 17 0 24 -2 18 -5z m692 -27 c39
-17 45 -32 15 -41 -19 -6 -80 21 -80 35 0 23 20 24 65 6z m199 -62 l-18 -69
-12 30 c-7 17 -13 37 -14 44 0 15 50 74 57 67 2 -2 -4 -34 -13 -72z m-855 15
l10 -29 -69 0 c-37 0 -75 3 -84 6 -24 9 -19 24 9 24 14 0 30 8 36 18 8 13 21
16 49 14 32 -3 40 -9 49 -33z m511 22 c0 -52 4 -51 -231 -51 l-219 0 -10 26
c-6 14 -10 27 -10 29 0 3 98 6 218 8 119 1 225 3 235 5 11 1 17 -5 17 -17z
m50 3 c0 -20 -18 -54 -29 -54 -8 0 -6 22 5 58 5 17 24 15 24 -4z m60 -24 l25
-19 -34 -35 c-41 -43 -48 -44 -63 -11 -9 20 -8 28 5 43 10 10 17 24 17 30 0
18 22 14 50 -8z m193 -67 c7 -38 -1 -41 -44 -16 l-29 17 27 28 c30 31 36 27
46 -29z m-210 -47 c-56 -72 -75 -87 -88 -66 -5 9 136 152 143 145 2 -2 -23
-37 -55 -79z m-865 29 c-14 -31 -21 -26 -12 9 3 14 10 23 15 21 4 -3 3 -17 -3
-30z m812 -10 c0 -13 -38 -51 -43 -44 -2 2 1 24 6 49 8 41 10 43 23 25 8 -10
14 -24 14 -30z m209 1 c10 -12 6 -17 -26 -25 -55 -16 -59 -14 -33 14 27 28 42
31 59 11z m16 -141 c-22 -41 -43 -75 -47 -75 -5 0 -20 8 -35 17 l-26 17 69 63
c37 34 70 60 73 58 2 -3 -13 -39 -34 -80z m-259 30 c4 -8 13 -15 21 -15 19 0
83 -38 83 -49 0 -11 -160 -144 -167 -138 -2 3 5 51 16 108 12 56 21 103 21
105 0 11 21 2 26 -11z m147 -27 c-19 -19 -26 -20 -48 -10 -39 18 -30 32 22 32
l47 0 -21 -22z m-463 -50 c22 -36 15 -61 -9 -32 -9 11 -23 18 -32 16 -21 -4
-34 28 -17 40 23 14 38 8 58 -24z m490 -25 c14 -9 27 -18 29 -19 2 -2 -15 -28
-38 -59 l-42 -55 -84 0 c-47 0 -85 3 -85 7 0 10 32 43 42 43 5 0 6 -6 1 -12
-10 -18 66 43 101 81 34 36 42 37 76 14z m-490 -44 c0 -5 -7 -9 -15 -9 -15 0
-20 12 -9 23 8 8 24 -1 24 -14z"/>
<path d="M1443 2203 c20 -2 54 -2 75 0 20 2 3 4 -38 4 -41 0 -58 -2 -37 -4z"/>
<path d="M1383 2165 c0 -22 2 -30 4 -17 2 12 2 30 0 40 -3 9 -5 -1 -4 -23z"/>
<path d="M1551 2164 c0 -11 3 -14 6 -6 3 7 2 16 -1 19 -3 4 -6 -2 -5 -13z"/>
<path d="M1420 1971 c0 -6 5 -13 10 -16 6 -3 11 -54 12 -113 l2 -107 4 90 c3
97 -3 155 -18 155 -6 0 -10 -4 -10 -9z"/>
<path d="M1512 1950 c0 -19 2 -27 5 -17 2 9 2 25 0 35 -3 9 -5 1 -5 -18z"/>
<path d="M1378 1963 c6 -2 18 -2 25 0 6 3 1 5 -13 5 -14 0 -19 -2 -12 -5z"/>
<path d="M1684 1938 c150 -99 188 -138 242 -243 13 -27 22 -39 18 -25 -22 85
-134 211 -229 256 -27 13 -41 19 -31 12z"/>
<path d="M1524 1790 c0 -52 1 -74 3 -47 2 26 2 68 0 95 -2 26 -3 4 -3 -48z"/>
<path d="M1530 1645 c0 -8 4 -15 10 -15 5 0 7 7 4 15 -4 8 -8 15 -10 15 -2 0
-4 -7 -4 -15z"/>
<path d="M1578 1614 c12 -8 29 -28 37 -45 9 -16 22 -29 29 -29 7 0 -5 20 -27
45 -22 25 -45 45 -51 45 -6 0 0 -7 12 -16z"/>
<path d="M2123 1623 c9 -2 23 -2 30 0 6 3 -1 5 -18 5 -16 0 -22 -2 -12 -5z"/>
<path d="M1575 1348 c-27 -74 -44 -132 -40 -136 9 -10 22 12 40 68 10 30 20
61 23 68 2 6 -1 12 -7 12 -7 0 -14 -6 -16 -12z"/>
<path d="M1468 1308 c-40 -14 -36 -44 8 -58 19 -7 38 -10 41 -7 8 9 -7 27 -23
27 -21 0 -17 17 6 23 22 6 28 28 8 26 -7 0 -25 -5 -40 -11z"/>
<path d="M1620 1310 c0 -5 8 -13 18 -19 16 -9 16 -11 -3 -25 -31 -22 -9 -32
30 -13 43 20 44 32 5 52 -33 17 -50 19 -50 5z"/>
<path d="M1668 923 c7 -3 16 -2 19 1 4 3 -2 6 -13 5 -11 0 -14 -3 -6 -6z"/>
<path d="M1348 913 c7 -3 16 -2 19 1 4 3 -2 6 -13 5 -11 0 -14 -3 -6 -6z"/>
<path d="M1031 844 c0 -11 3 -14 6 -6 3 7 2 16 -1 19 -3 4 -6 -2 -5 -13z"/>
<path d="M1052 791 c-7 -21 -12 -45 -11 -52 0 -8 7 8 15 35 9 26 13 50 11 52
-2 2 -9 -13 -15 -35z"/>
<path d="M1285 822 c-11 -8 -14 -422 -3 -422 4 0 9 97 10 215 2 118 3 215 3
215 0 0 -4 -4 -10 -8z"/>
<path d="M1006 813 c5 -5 12 -12 16 -18 4 -6 8 -2 8 8 0 9 -7 17 -17 17 -9 0
-12 -3 -7 -7z"/>
<path d="M936 771 c-3 -4 6 -6 19 -3 14 2 25 6 25 8 0 8 -39 4 -44 -5z"/>
<path d="M1008 757 c-3 -19 -2 -25 4 -19 6 6 8 18 6 28 -3 14 -5 12 -10 -9z"/>
<path d="M991 679 c-31 -19 -32 -21 -17 -38 9 -10 16 -23 16 -29 0 -7 5 -12
10 -12 6 0 10 11 10 24 0 14 4 36 10 50 11 31 13 31 -29 5z"/>
<path d="M1588 423 c7 -3 16 -2 19 1 4 3 -2 6 -13 5 -11 0 -14 -3 -6 -6z"/>
<path d="M1228 343 c7 -3 16 -2 19 1 4 3 -2 6 -13 5 -11 0 -14 -3 -6 -6z"/>
<path d="M1378 343 c6 -2 18 -2 25 0 6 3 1 5 -13 5 -14 0 -19 -2 -12 -5z"/>
<path d="M1852 2250 c-12 -22 -18 -40 -13 -40 5 0 12 8 15 17 9 22 26 4 36
-39 l8 -33 1 33 c1 21 6 32 15 32 26 0 29 21 5 46 -31 33 -40 30 -67 -16z m66
-3 c4 -18 -14 -22 -37 -8 -7 5 -10 14 -6 20 10 17 39 9 43 -12z"/>
<path d="M620 2256 c0 -12 45 -76 53 -76 5 0 0 14 -10 31 -18 31 -43 57 -43
45z"/>
<path d="M1946 2196 c-14 -19 -26 -40 -26 -48 0 -12 8 -2 45 55 24 38 13 34
-19 -7z"/>
<path d="M551 2205 c0 -5 12 -25 28 -44 25 -30 30 -32 50 -21 13 6 20 14 17
18 -4 3 -12 0 -18 -6 -10 -10 -20 -4 -45 25 -18 21 -32 34 -32 28z"/>
<path d="M1980 2158 c-25 -16 -36 -27 -24 -23 23 6 39 -8 46 -40 3 -14 8 -8
17 23 19 67 12 73 -39 40z m32 -20 c-6 -6 -16 -7 -23 -3 -9 6 -7 12 7 22 21
15 34 -1 16 -19z"/>
<path d="M498 2159 c-24 -13 -23 -61 1 -83 23 -21 56 -14 72 16 9 16 7 26 -9
47 -22 30 -39 35 -64 20z m46 -15 c20 -20 20 -48 1 -64 -13 -10 -19 -10 -35 5
-23 20 -26 45 -8 63 16 16 23 15 42 -4z"/>
<path d="M2047 2102 c-33 -34 -33 -43 -4 -68 l22 -19 -19 23 c-19 22 -19 22
14 57 19 19 29 35 24 35 -6 0 -22 -13 -37 -28z"/>
<path d="M412 2067 l-22 -23 33 -32 c35 -34 62 -45 33 -13 -15 16 -15 19 -1
31 19 16 16 54 -5 58 -9 1 -26 -8 -38 -21z m44 2 c10 -17 -23 -46 -38 -31 -8
8 -8 15 2 27 15 18 26 19 36 4z"/>
<path d="M2125 2010 c-31 -32 -29 -51 7 -74 20 -12 68 17 68 42 0 19 -27 62
-39 62 -4 0 -20 -14 -36 -30z m61 -12 c9 -30 -29 -62 -57 -48 -24 13 -24 19 3
47 27 29 45 29 54 1z"/>
<path d="M322 1958 c-28 -28 -2 -88 38 -88 24 0 50 26 50 49 0 39 -61 66 -88
39z m64 -19 c20 -23 11 -51 -20 -57 -36 -7 -60 40 -34 66 17 17 32 15 54 -9z"/>
<path d="M2193 1924 c-39 -30 -40 -34 -12 -65 l21 -24 -16 27 c-13 22 -13 28
-1 38 11 9 16 7 25 -10 6 -12 14 -19 17 -17 2 3 0 14 -6 26 -17 31 8 39 30 10
23 -30 25 -17 3 16 -20 31 -21 31 -61 -1z"/>
<path d="M273 1878 c-6 -7 -16 -23 -22 -36 -11 -21 -11 -22 7 -11 16 10 25 8
51 -10 17 -12 31 -18 31 -12 0 6 -14 18 -31 27 -23 11 -30 21 -26 35 6 22 3
24 -10 7z"/>
<path d="M2263 1803 c-37 -19 -40 -30 -17 -59 14 -18 15 -18 4 4 -13 27 -15
24 28 46 30 16 41 27 25 25 -5 0 -23 -8 -40 -16z"/>
<path d="M245 1785 c48 -37 54 -45 48 -61 -6 -16 -9 -16 -73 1 l-25 6 25 -15
c34 -21 67 -20 80 3 14 28 4 45 -38 65 -30 13 -33 13 -17 1z"/>
<path d="M2315 1730 c-45 -18 -58 -62 -25 -82 16 -10 99 16 87 28 -3 3 -19 -2
-37 -11 -25 -13 -35 -14 -46 -4 -23 19 -16 37 24 58 37 20 35 27 -3 11z"/>
<path d="M172 1664 c-9 -30 -8 -33 4 -24 10 9 22 9 45 1 18 -6 34 -9 36 -7 3
2 -12 10 -32 17 -27 10 -35 18 -32 31 9 34 -10 18 -21 -18z"/>
<path d="M2312 1613 c23 -6 35 -52 17 -64 -7 -4 -11 -10 -8 -13 3 -4 23 9 45
28 21 19 37 36 34 39 -3 2 -27 7 -55 9 -27 3 -42 4 -33 1z m68 -17 c0 -2 -7
-9 -15 -16 -12 -10 -15 -10 -15 4 0 9 7 16 15 16 8 0 15 -2 15 -4z"/>
<path d="M150 1596 c0 -2 20 -11 45 -19 25 -9 45 -12 45 -8 0 4 -17 13 -39 19
-41 13 -51 14 -51 8z"/>
<path d="M133 1540 c-11 -37 -7 -53 6 -31 7 11 16 11 45 1 21 -7 40 -10 43 -7
3 3 -13 11 -36 18 -28 8 -41 18 -44 33 -3 17 -5 14 -14 -14z"/>
<path d="M2365 1523 c-11 -3 -24 -9 -29 -14 -5 -5 6 -4 25 1 18 6 35 10 37 10
2 0 -11 -19 -29 -42 l-33 -41 38 6 c22 3 44 11 49 16 7 7 0 8 -21 2 -38 -11
-41 -3 -7 29 39 37 30 47 -30 33z"/>
<path d="M114 1436 c-13 -52 26 -63 51 -16 9 17 20 28 25 25 16 -10 11 -43 -7
-54 -16 -9 -17 -10 -1 -11 20 0 32 32 23 60 -9 29 -32 24 -51 -11 -12 -23 -19
-28 -27 -20 -9 9 -8 16 1 31 7 12 8 20 2 20 -5 0 -12 -11 -16 -24z"/>
<path d="M2378 1413 c-30 -5 -37 -28 -18 -64 23 -42 94 -11 88 40 -3 27 -18
32 -70 24z m60 -31 c4 -29 -40 -51 -63 -32 -25 21 -19 48 13 53 40 6 47 3 50
-21z"/>
<path d="M128 1350 c46 -11 47 -14 7 -36 -36 -19 -45 -34 -21 -34 7 0 29 -2
47 -5 33 -5 32 -5 -6 9 -22 8 -35 14 -30 15 6 1 26 11 45 23 l35 22 -30 7
c-16 4 -41 7 -55 7 -20 0 -18 -2 8 -8z"/>
<path d="M2373 1299 c19 -11 24 -59 5 -59 -6 0 -9 -2 -6 -5 7 -8 88 25 88 35
0 9 -73 40 -93 40 -6 0 -4 -5 6 -11z m67 -29 c0 -4 -9 -10 -20 -13 -15 -4 -20
0 -20 13 0 13 5 17 20 13 11 -3 20 -9 20 -13z"/>
<path d="M115 1240 c3 -5 8 -10 11 -10 2 0 4 5 4 10 0 6 -5 10 -11 10 -5 0 -7
-4 -4 -10z"/>
<path d="M158 1233 c6 -2 18 -2 25 0 6 3 1 5 -13 5 -14 0 -19 -2 -12 -5z"/>
<path d="M1227 193 c-11 -10 -8 -93 3 -93 6 0 10 9 10 20 0 13 7 20 19 20 28
0 47 26 31 45 -13 15 -51 20 -63 8z m51 -26 c2 -12 -3 -17 -17 -17 -15 0 -21
6 -21 21 0 25 33 22 38 -4z"/>
<path d="M1188 153 c5 -59 10 -63 11 -10 1 26 -3 47 -7 47 -4 0 -6 -17 -4 -37z"/>
<path d="M1310 145 c0 -25 5 -45 10 -45 6 0 10 20 10 45 0 25 -4 45 -10 45 -5
0 -10 -20 -10 -45z"/>
<path d="M1350 145 c0 -44 1 -45 33 -44 29 1 30 2 7 8 -20 6 -24 13 -23 44 0
20 -4 37 -8 37 -5 0 -9 -20 -9 -45z"/>
</g>
</svg>
